<svg xmlns="http://www.w3.org/2000/svg" width="176" height="47" viewBox="0 0 176 47" fill="none">
<rect y="7" width="153" height="21" fill="#F8F2F2"/>
<g filter="url(#filter0_d_16_102)">
<path d="M25.685 27.803C26.8161 45.4251 43.4289 42 35.5 42C27.5711 42 8.02212 30.2359 8.02212 21.4126C8.02212 12.5892 7.22798 27.803 15.1569 27.803C23.0858 27.803 25.685 18.9796 25.685 27.803Z" fill="#63181F"/>
<path d="M25.4303 27.803V27.8112L25.4308 27.8193C25.7163 32.2666 26.9803 35.4053 28.6059 37.6069C30.0666 39.5853 31.8107 40.7955 33.3741 41.5195C31.7851 41.2167 29.9328 40.6194 27.9604 39.7892C25.0296 38.5556 21.8579 36.8179 18.9321 34.8052C16.0053 32.7918 13.3334 30.5091 11.3961 28.1885C9.45346 25.8616 8.27683 23.5295 8.27683 21.4126C8.27683 21.2812 8.27666 21.1552 8.27634 21.0343C8.30645 21.1442 8.33822 21.2565 8.37175 21.3708C8.77211 22.7349 9.4279 24.3976 10.4989 25.7238C11.5753 27.0566 13.0798 28.0577 15.1569 28.0577C18.7508 28.0577 21.2818 26.282 22.9374 25.1204C23.1516 24.9702 23.3511 24.8302 23.5364 24.7056C23.9483 24.4288 24.267 24.2436 24.5166 24.1698C24.6376 24.1341 24.7254 24.13 24.7901 24.143C24.8498 24.1549 24.9065 24.1845 24.9646 24.2499C25.0948 24.3963 25.22 24.7087 25.3057 25.3059C25.3897 25.891 25.4303 26.7038 25.4303 27.803Z" stroke="#63181F" stroke-width="0.509434"/>
</g>
<path d="M23.0094 19.25C23.0094 23.0076 20.1817 25.9906 16.7688 25.9906C13.3559 25.9906 10.5282 23.0076 10.5282 19.25C10.5282 15.4924 13.3559 12.5094 16.7688 12.5094C20.1817 12.5094 23.0094 15.4924 23.0094 19.25Z" fill="#DC3545" stroke="#63181F" stroke-width="1.01887"/>
<path d="M53.8489 30.912C53.8489 31.056 53.8129 31.188 53.7409 31.308C53.6689 31.428 53.5489 31.488 53.3809 31.488H51.1489V39.192C49.4689 39.768 47.8009 40.404 46.1449 41.1C45.3529 41.436 44.5129 41.652 43.6249 41.748C42.7609 41.844 41.9089 41.892 41.0689 41.892C40.3489 41.892 39.5449 41.808 38.6569 41.64C37.7689 41.472 36.9049 41.232 36.0649 40.92C35.2489 40.608 34.5289 40.248 33.9049 39.84C32.0809 38.616 30.7249 37.032 29.8369 35.088C28.9729 33.144 28.5409 31.08 28.5409 28.896C28.5409 27.048 28.8289 25.308 29.4049 23.676C30.0049 22.044 30.8569 20.604 31.9609 19.356C33.0649 18.108 34.3849 17.136 35.9209 16.44C37.4809 15.72 39.2209 15.36 41.1409 15.36C42.5569 15.36 43.9129 15.552 45.2089 15.936C45.4249 16.008 45.7729 16.116 46.2529 16.26C46.7329 16.404 47.2129 16.548 47.6929 16.692C48.1729 16.812 48.4969 16.872 48.6649 16.872C49.1689 16.872 49.5169 16.812 49.7089 16.692C49.9009 16.548 50.0449 16.392 50.1409 16.224C50.2609 16.056 50.4289 15.924 50.6449 15.828H50.9329C51.1249 15.828 51.2329 15.936 51.2569 16.152C51.3049 16.392 51.3169 16.644 51.2929 16.908C51.2929 17.172 51.2929 17.436 51.2929 17.7C51.2929 18.444 51.3049 19.188 51.3289 19.932C51.3769 20.676 51.4009 21.432 51.4009 22.2C51.4009 22.488 51.3889 22.824 51.3649 23.208C51.3649 23.592 51.1489 23.784 50.7169 23.784C50.5729 23.784 50.4409 23.772 50.3209 23.748C50.2249 23.7 50.1289 23.616 50.0329 23.496C50.0089 23.448 49.9489 23.316 49.8529 23.1C49.7569 22.86 49.6609 22.62 49.5649 22.38C49.4689 22.116 49.3969 21.936 49.3489 21.84C48.7009 20.376 47.7529 19.152 46.5049 18.168C45.8569 17.64 45.0289 17.22 44.0209 16.908C43.0369 16.596 42.1249 16.44 41.2849 16.44C39.6769 16.44 38.3089 16.836 37.1809 17.628C36.0529 18.396 35.1409 19.404 34.4449 20.652C33.7489 21.9 33.2449 23.244 32.9329 24.684C32.6209 26.124 32.4649 27.516 32.4649 28.86C32.4649 30.276 32.6329 31.668 32.9689 33.036C33.3049 34.404 33.8209 35.64 34.5169 36.744C35.2369 37.848 36.1729 38.736 37.3249 39.408C38.4769 40.056 39.8569 40.38 41.4649 40.38C41.9449 40.38 42.5209 40.332 43.1929 40.236C43.8649 40.14 44.5369 39.972 45.2089 39.732C45.8809 39.492 46.4329 39.168 46.8649 38.76C47.3209 38.352 47.5489 37.836 47.5489 37.212V32.46C47.5489 32.076 47.3569 31.836 46.9729 31.74C46.6129 31.62 46.3009 31.56 46.0369 31.56C45.6769 31.56 45.3169 31.584 44.9569 31.632C44.5969 31.656 44.2369 31.668 43.8769 31.668C43.6849 31.668 43.5529 31.608 43.4809 31.488C43.4329 31.368 43.4089 31.224 43.4089 31.056C43.4089 30.912 43.4329 30.78 43.4809 30.66C43.5289 30.516 43.6489 30.444 43.8409 30.444C44.2249 30.444 44.5969 30.456 44.9569 30.48C45.3169 30.48 45.6889 30.48 46.0729 30.48H48.6289C49.0369 30.48 49.4449 30.48 49.8529 30.48C50.2609 30.48 50.6689 30.468 51.0769 30.444C51.4849 30.444 51.8809 30.432 52.2649 30.408C52.6489 30.36 53.0329 30.336 53.4169 30.336C53.5609 30.336 53.6689 30.408 53.7409 30.552C53.8129 30.672 53.8489 30.792 53.8489 30.912ZM77.6179 35.844C77.6179 36.276 77.5819 36.72 77.5099 37.176C77.4379 37.608 77.3779 38.04 77.3299 38.472C77.2579 38.952 77.2099 39.444 77.1859 39.948C77.1619 40.428 77.0899 40.908 76.9699 41.388C76.9459 41.532 76.8739 41.676 76.7539 41.82C76.6579 41.94 76.5259 42 76.3579 42C73.7899 42 71.2219 41.988 68.6539 41.964C66.0859 41.916 63.5179 41.892 60.9499 41.892C60.1819 41.892 59.4019 41.928 58.6099 42C57.8419 42.048 57.0739 42.072 56.3059 42.072C56.1859 42.072 56.0659 42.036 55.9459 41.964C55.8499 41.868 55.8019 41.76 55.8019 41.64C55.8019 41.496 55.8379 41.364 55.9099 41.244C55.9819 41.1 56.1019 41.028 56.2699 41.028C56.7739 41.028 57.2539 41.004 57.7099 40.956C58.1659 40.884 58.5379 40.716 58.8259 40.452C59.1379 40.164 59.2939 39.708 59.2939 39.084V18.42C59.2939 17.868 59.1259 17.508 58.7899 17.34C58.4539 17.148 58.0459 17.052 57.5659 17.052C57.3259 17.052 57.0979 17.064 56.8819 17.088C56.6659 17.088 56.4499 17.088 56.2339 17.088C56.0419 17.088 55.8739 17.04 55.7299 16.944C55.5859 16.848 55.5139 16.692 55.5139 16.476C55.5139 16.284 55.5499 16.116 55.6219 15.972C55.6939 15.828 55.8499 15.756 56.0899 15.756C56.4979 15.756 56.8939 15.768 57.2779 15.792C57.6859 15.816 58.0819 15.828 58.4659 15.828C60.8899 15.828 63.3139 15.816 65.7379 15.792C68.1619 15.744 70.5739 15.72 72.9739 15.72C74.0779 15.72 75.1699 15.684 76.2499 15.612C76.3459 16.308 76.4659 17.004 76.6099 17.7C76.7539 18.396 76.8739 19.092 76.9699 19.788C77.0179 19.932 77.0539 20.076 77.0779 20.22C77.1019 20.34 77.1139 20.472 77.1139 20.616C77.1139 20.856 77.0299 21.024 76.8619 21.12C76.7179 21.216 76.5379 21.264 76.3219 21.264C76.1299 21.264 75.9859 21.228 75.8899 21.156C75.8179 21.06 75.7459 20.916 75.6739 20.724C75.2179 19.284 74.6059 18.288 73.8379 17.736C73.0939 17.184 71.9539 16.908 70.4179 16.908H62.9299V27.744C63.8659 27.744 64.8019 27.744 65.7379 27.744C66.6739 27.72 67.6219 27.684 68.5819 27.636C69.5659 27.588 70.4779 27.504 71.3179 27.384C72.1819 27.24 73.0939 27.084 74.0539 26.916H74.0899C74.2339 26.916 74.3059 26.976 74.3059 27.096C74.3059 27.264 74.2339 27.564 74.0899 27.996C73.9459 28.428 73.8379 28.716 73.7659 28.86C73.6459 29.148 73.4539 29.292 73.1899 29.292C72.5899 29.292 71.9659 29.256 71.3179 29.184C70.6939 29.088 70.0699 29.04 69.4459 29.04C69.0139 29.016 68.5819 29.016 68.1499 29.04C67.7179 29.04 67.2739 29.04 66.8179 29.04C66.6499 29.04 66.4699 29.04 66.2779 29.04C66.1099 29.016 65.9299 29.004 65.7379 29.004C65.3779 29.004 64.9819 29.04 64.5499 29.112C64.1179 29.16 63.7339 29.304 63.3979 29.544C63.0859 29.76 62.9299 30.12 62.9299 30.624V39.264C62.9299 40.08 63.1339 40.56 63.5419 40.704C63.9499 40.824 64.4899 40.884 65.1619 40.884H68.0419C68.7139 40.884 69.4579 40.848 70.2739 40.776C71.1139 40.704 71.9299 40.548 72.7219 40.308C73.5139 40.068 74.1619 39.72 74.6659 39.264C75.2179 38.76 75.6019 38.208 75.8179 37.608C76.0579 36.984 76.3339 36.36 76.6459 35.736C76.7659 35.52 76.9579 35.412 77.2219 35.412C77.4859 35.412 77.6179 35.556 77.6179 35.844ZM103.316 22.38C103.316 22.716 103.172 22.884 102.884 22.884C102.788 22.884 102.704 22.884 102.632 22.884C102.56 22.86 102.5 22.8 102.452 22.704C102.428 22.656 102.392 22.548 102.344 22.38C102.32 22.188 102.308 22.056 102.308 21.984C102.188 21.264 102.008 20.472 101.768 19.608C101.552 18.72 101.204 18 100.724 17.448C100.484 17.16 100.076 16.968 99.4997 16.872C98.9237 16.776 98.3357 16.728 97.7357 16.728C97.1357 16.728 96.6677 16.728 96.3317 16.728C95.9717 16.728 95.5277 16.728 94.9997 16.728C94.4957 16.728 94.0397 16.824 93.6317 17.016C93.2477 17.208 93.0557 17.592 93.0557 18.168C93.0557 21.792 93.0677 25.428 93.0917 29.076C93.1397 32.7 93.1637 36.336 93.1637 39.984C93.1637 40.296 93.2957 40.536 93.5597 40.704C93.8237 40.848 94.1237 40.944 94.4597 40.992C94.7957 41.04 95.0717 41.064 95.2877 41.064C95.4797 41.064 95.6477 41.064 95.7917 41.064C95.9597 41.04 96.1277 41.028 96.2957 41.028C96.5357 41.028 96.6557 41.136 96.6557 41.352C96.6557 41.448 96.6557 41.592 96.6557 41.784C96.6557 41.952 96.5717 42.036 96.4037 42.036C95.5397 42.036 94.6757 42.024 93.8117 42C92.9717 41.952 92.1197 41.928 91.2557 41.928C90.1037 41.928 88.9277 41.964 87.7277 42.036C87.4637 42.036 87.1877 42.048 86.8997 42.072C86.6117 42.096 86.3357 42.108 86.0717 42.108C85.8557 42.108 85.7477 41.976 85.7477 41.712C85.7477 41.424 85.7837 41.244 85.8557 41.172C85.9277 41.1 86.0957 41.064 86.3597 41.064C86.4077 41.064 86.4557 41.076 86.5037 41.1C86.5757 41.1 86.6237 41.1 86.6477 41.1C86.9117 41.1 87.2477 41.076 87.6557 41.028C88.0637 40.98 88.4237 40.884 88.7357 40.74C89.0717 40.572 89.2397 40.32 89.2397 39.984C89.2637 38.136 89.2757 36.288 89.2757 34.44C89.2997 32.592 89.3117 30.744 89.3117 28.896C89.3117 27.072 89.2997 25.26 89.2757 23.46C89.2517 21.636 89.2397 19.812 89.2397 17.988C89.2397 17.7 89.1197 17.436 88.8797 17.196C88.6637 16.956 88.4237 16.824 88.1597 16.8C87.9437 16.752 87.7157 16.728 87.4757 16.728C87.2597 16.728 87.0317 16.728 86.7917 16.728H83.5877C82.7237 16.728 82.0757 16.944 81.6437 17.376C81.2357 17.784 80.9477 18.324 80.7797 18.996C80.6117 19.644 80.4557 20.316 80.3117 21.012C80.3117 21.06 80.2757 21.228 80.2037 21.516C80.1557 21.78 80.0957 22.044 80.0237 22.308C79.9757 22.548 79.9397 22.68 79.9157 22.704C79.8197 22.824 79.6757 22.884 79.4837 22.884C79.2197 22.884 79.0877 22.752 79.0877 22.488C79.0877 22.392 79.0877 22.272 79.0877 22.128C79.1117 21.96 79.1357 21.768 79.1597 21.552C79.2077 21 79.2437 20.34 79.2677 19.572C79.3157 18.78 79.3517 18.048 79.3757 17.376C79.3997 17.136 79.4117 16.896 79.4117 16.656C79.4117 16.416 79.4237 16.2 79.4477 16.008C79.4477 15.672 79.6517 15.528 80.0597 15.576C81.8117 15.744 83.5757 15.828 85.3517 15.828C87.1517 15.804 88.9277 15.792 90.6797 15.792H93.7397C94.7237 15.792 95.7077 15.792 96.6917 15.792C97.6997 15.768 98.7077 15.744 99.7157 15.72C100.148 15.696 100.592 15.684 101.048 15.684C101.528 15.66 101.996 15.648 102.452 15.648C102.764 15.648 102.944 15.768 102.992 16.008C103.016 16.08 103.04 16.344 103.064 16.8C103.088 17.232 103.112 17.736 103.136 18.312C103.16 18.864 103.172 19.392 103.172 19.896C103.196 20.376 103.208 20.712 103.208 20.904C103.232 21.144 103.256 21.384 103.28 21.624C103.304 21.864 103.316 22.116 103.316 22.38Z" fill="#63181F"/>
<path d="M104.923 26.949V28H100.198V26.949L101.685 26.5986V17.1479L100.198 16.7976V15.8406L103.872 15.7466L109.648 25.5305V17.1479L108.162 16.7976V15.8406L112.708 15.7466V16.7976L111.221 17.1479V28H109.033L103.257 18.3613V26.5986L104.923 26.949ZM115.861 23.625C115.861 24.582 116.094 25.3482 116.561 25.9236C117.028 26.4932 117.641 26.7781 118.398 26.7781C118.911 26.7781 119.387 26.7069 119.825 26.5645C120.264 26.422 120.626 26.2682 120.911 26.103C121.195 25.9321 121.338 25.8353 121.338 25.8125L121.953 26.7183C121.953 26.741 121.762 26.8835 121.381 27.1455C121.005 27.4019 120.538 27.6383 119.979 27.8547C119.427 28.0655 118.84 28.1709 118.219 28.1709C116.84 28.1709 115.795 27.755 115.083 26.9233C114.377 26.0916 114.023 24.9352 114.023 23.4541C114.023 22.5312 114.203 21.6967 114.562 20.9504C114.926 20.2042 115.433 19.6174 116.083 19.1902C116.738 18.7629 117.481 18.5493 118.313 18.5493C120.763 18.5493 121.987 19.9194 121.987 22.6594C121.987 22.8474 121.976 23.0354 121.953 23.2234C121.93 23.4114 121.913 23.5339 121.902 23.5908L115.861 23.625ZM120.133 22.3091C120.133 21.597 119.979 21.0216 119.672 20.583C119.37 20.1387 118.885 19.9165 118.219 19.9165C117.541 19.9165 117.003 20.1444 116.604 20.6001C116.211 21.0558 115.986 21.6255 115.929 22.3091H120.133ZM126.978 26.4277L129.268 18.8142L130.925 18.5493L133.096 26.4277L134.497 20.0361L133.275 19.7712V18.8142L137.214 18.7288V19.7712L136.198 19.9507L134.061 28H132.045L130.387 22.574L129.968 20.8992L129.601 22.574L127.935 28H125.927L123.739 20.0361L122.859 19.7712V18.8142L126.798 18.7288V19.7712L125.482 19.9507L126.978 26.4277ZM139.521 26.7012C139.521 26.7126 139.667 26.7439 139.957 26.7952C140.248 26.8407 140.592 26.8635 140.991 26.8635C142.307 26.8635 142.968 26.4021 142.974 25.4792C142.974 25.1033 142.811 24.8213 142.487 24.6333C142.168 24.4396 141.669 24.2374 140.991 24.0266C140.37 23.8272 139.866 23.6364 139.479 23.4541C139.097 23.2661 138.77 22.9984 138.496 22.6509C138.223 22.2977 138.086 21.842 138.086 21.2837C138.086 20.4064 138.382 19.7314 138.975 19.2585C139.573 18.7857 140.345 18.5493 141.29 18.5493C141.7 18.5493 142.125 18.5892 142.563 18.6689C143.008 18.743 143.384 18.8228 143.691 18.9082C144.005 18.9937 144.201 19.0506 144.281 19.0791L144.23 21.4375H143.093L142.811 20.0703C142.777 20.0589 142.7 20.0361 142.581 20.002C142.467 19.9678 142.304 19.9364 142.094 19.908C141.883 19.8795 141.649 19.8652 141.393 19.8652C140.356 19.8652 139.838 20.2555 139.838 21.0359C139.838 21.4119 140.003 21.7024 140.333 21.9075C140.669 22.1069 141.174 22.3176 141.846 22.5398C142.45 22.7506 142.945 22.9471 143.333 23.1294C143.72 23.306 144.047 23.5652 144.315 23.907C144.583 24.2431 144.717 24.6675 144.717 25.1802C144.717 26.1486 144.352 26.8892 143.623 27.4019C142.894 27.9146 141.977 28.1709 140.872 28.1709C140.393 28.1709 139.949 28.1424 139.539 28.0854C139.128 28.0285 138.801 27.9715 138.556 27.9146C138.311 27.8576 138.16 27.8149 138.103 27.7864V25.1973H139.333L139.521 26.7012Z" fill="#63181F"/>
<path d="M104.923 26.949H105.123V26.7867L104.964 26.7533L104.923 26.949ZM104.923 28V28.2H105.123V28H104.923ZM100.198 28H99.9978V28.2H100.198V28ZM100.198 26.949L100.152 26.7543L99.9978 26.7906V26.949H100.198ZM101.685 26.5986L101.73 26.7933L101.885 26.757V26.5986H101.685ZM101.685 17.1479H101.885V16.9896L101.73 16.9533L101.685 17.1479ZM100.198 16.7976H99.9978V16.956L100.152 16.9923L100.198 16.7976ZM100.198 15.8406L100.193 15.6406L99.9978 15.6456V15.8406H100.198ZM103.872 15.7466L104.044 15.6449L103.985 15.5436L103.867 15.5466L103.872 15.7466ZM109.648 25.5305L109.476 25.6322L109.848 26.2627V25.5305H109.648ZM109.648 17.1479H109.848V16.9896L109.694 16.9533L109.648 17.1479ZM108.162 16.7976H107.962V16.956L108.116 16.9923L108.162 16.7976ZM108.162 15.8406L108.157 15.6406L107.962 15.6447V15.8406H108.162ZM112.708 15.7466H112.908V15.5424L112.703 15.5466L112.708 15.7466ZM112.708 16.7976L112.753 16.9923L112.908 16.956V16.7976H112.708ZM111.221 17.1479L111.175 16.9533L111.021 16.9896V17.1479H111.221ZM111.221 28V28.2H111.421V28H111.221ZM109.033 28L108.862 28.1028L108.92 28.2H109.033V28ZM103.257 18.3613L103.428 18.2585L103.057 17.6385V18.3613H103.257ZM103.257 26.5986H103.057V26.761L103.216 26.7944L103.257 26.5986ZM104.723 26.949V28H105.123V26.949H104.723ZM104.923 27.8H100.198V28.2H104.923V27.8ZM100.398 28V26.949H99.9978V28H100.398ZM100.244 27.1436L101.73 26.7933L101.639 26.404L100.152 26.7543L100.244 27.1436ZM101.885 26.5986V17.1479H101.485V26.5986H101.885ZM101.73 16.9533L100.244 16.6029L100.152 16.9923L101.639 17.3426L101.73 16.9533ZM100.398 16.7976V15.8406H99.9978V16.7976H100.398ZM100.203 16.0405L103.877 15.9465L103.867 15.5466L100.193 15.6406L100.203 16.0405ZM103.7 15.8483L109.476 25.6322L109.821 25.4288L104.044 15.6449L103.7 15.8483ZM109.848 25.5305V17.1479H109.448V25.5305H109.848ZM109.694 16.9533L108.207 16.6029L108.116 16.9923L109.603 17.3426L109.694 16.9533ZM108.362 16.7976V15.8406H107.962V16.7976H108.362ZM108.166 16.0405L112.712 15.9465L112.703 15.5466L108.157 15.6406L108.166 16.0405ZM112.508 15.7466V16.7976H112.908V15.7466H112.508ZM112.662 16.6029L111.175 16.9533L111.267 17.3426L112.753 16.9923L112.662 16.6029ZM111.021 17.1479V28H111.421V17.1479H111.021ZM111.221 27.8H109.033V28.2H111.221V27.8ZM109.205 27.8972L103.428 18.2585L103.085 18.4641L108.862 28.1028L109.205 27.8972ZM103.057 18.3613V26.5986H103.457V18.3613H103.057ZM103.216 26.7944L104.882 27.1447L104.964 26.7533L103.298 26.4029L103.216 26.7944ZM115.861 23.625L115.859 23.425L115.661 23.4261V23.625H115.861ZM116.561 25.9236L116.406 26.0496L116.407 26.0504L116.561 25.9236ZM120.911 26.103L121.011 26.2761L121.014 26.2745L120.911 26.103ZM121.338 25.8125L121.503 25.7001L121.138 25.1621V25.8125H121.338ZM121.953 26.7183H122.153V26.6568L122.119 26.6059L121.953 26.7183ZM121.381 27.1455L121.493 27.3108L121.494 27.3104L121.381 27.1455ZM119.979 27.8547L120.051 28.0416L120.052 28.0412L119.979 27.8547ZM115.083 26.9233L114.931 27.0528L114.931 27.0534L115.083 26.9233ZM114.562 20.9504L114.382 20.8626L114.382 20.8638L114.562 20.9504ZM116.083 19.1902L115.974 19.0227L115.973 19.0231L116.083 19.1902ZM121.902 23.5908L121.903 23.7908L122.066 23.7899L122.098 23.63L121.902 23.5908ZM120.133 22.3091V22.5091H120.333V22.3091H120.133ZM119.672 20.583L119.506 20.6954L119.508 20.6978L119.672 20.583ZM116.604 20.6001L116.453 20.4684L116.453 20.4695L116.604 20.6001ZM115.929 22.3091L115.73 22.2925L115.712 22.5091H115.929V22.3091ZM115.661 23.625C115.661 24.6144 115.902 25.4294 116.406 26.0496L116.717 25.7975C116.286 25.2671 116.061 24.5497 116.061 23.625H115.661ZM116.407 26.0504C116.913 26.6679 117.583 26.9781 118.398 26.9781V26.5781C117.699 26.5781 117.144 26.3186 116.716 25.7968L116.407 26.0504ZM118.398 26.9781C118.93 26.9781 119.427 26.9042 119.887 26.7547L119.764 26.3742C119.347 26.5095 118.892 26.5781 118.398 26.5781V26.9781ZM119.887 26.7547C120.334 26.6095 120.71 26.4505 121.011 26.276L120.81 25.93C120.541 26.086 120.194 26.2346 119.764 26.3742L119.887 26.7547ZM121.014 26.2745C121.157 26.1886 121.268 26.1193 121.344 26.0676C121.381 26.0422 121.414 26.0181 121.44 25.9966C121.452 25.9863 121.468 25.9721 121.483 25.9551C121.49 25.9467 121.501 25.9329 121.511 25.9148C121.52 25.8993 121.538 25.8626 121.538 25.8125H121.138C121.138 25.7652 121.155 25.732 121.161 25.7205C121.169 25.7063 121.177 25.6972 121.18 25.6939C121.185 25.6873 121.188 25.6857 121.183 25.6903C121.173 25.6987 121.152 25.7138 121.119 25.7368C121.052 25.782 120.949 25.8466 120.808 25.9315L121.014 26.2745ZM121.172 25.9249L121.788 26.8306L122.119 26.6059L121.503 25.7001L121.172 25.9249ZM121.753 26.7183C121.753 26.6601 121.779 26.6212 121.782 26.6171C121.789 26.6058 121.795 26.599 121.796 26.5982C121.798 26.5959 121.796 26.5982 121.786 26.6066C121.768 26.6224 121.737 26.6471 121.69 26.6819C121.598 26.7507 121.458 26.85 121.267 26.9806L121.494 27.3104C121.685 27.179 121.831 27.0761 121.93 27.0024C121.978 26.966 122.019 26.9344 122.048 26.909C122.062 26.8968 122.078 26.8821 122.092 26.8666C122.099 26.8592 122.11 26.8468 122.12 26.8308C122.126 26.8219 122.153 26.7793 122.153 26.7183H121.753ZM121.268 26.9803C120.908 27.2258 120.455 27.4557 119.907 27.6683L120.052 28.0412C120.62 27.8208 121.101 27.5779 121.493 27.3108L121.268 26.9803ZM119.908 27.6679C119.379 27.8695 118.817 27.9709 118.219 27.9709V28.3709C118.863 28.3709 119.474 28.2615 120.051 28.0416L119.908 27.6679ZM118.219 27.9709C116.882 27.9709 115.9 27.5695 115.235 26.7933L114.931 27.0534C115.691 27.9406 116.798 28.3709 118.219 28.3709V27.9709ZM115.235 26.7939C114.569 26.0094 114.223 24.9048 114.223 23.4541H113.823C113.823 24.9657 114.184 26.1738 114.931 27.0528L115.235 26.7939ZM114.223 23.4541C114.223 22.5578 114.398 21.7534 114.742 21.0371L114.382 20.8638C114.008 21.64 113.823 22.5047 113.823 23.4541H114.223ZM114.741 21.0382C115.091 20.3219 115.575 19.7635 116.193 19.3573L115.973 19.0231C115.291 19.4714 114.761 20.0865 114.382 20.8626L114.741 21.0382ZM116.192 19.3577C116.813 18.953 117.517 18.7493 118.313 18.7493V18.3493C117.445 18.3493 116.663 18.5729 115.974 19.0227L116.192 19.3577ZM118.313 18.7493C119.501 18.7493 120.357 19.0805 120.92 19.7101C121.486 20.3441 121.787 21.315 121.787 22.6594H122.187C122.187 21.2637 121.876 20.1796 121.218 19.4435C120.556 18.7032 119.575 18.3493 118.313 18.3493V18.7493ZM121.787 22.6594C121.787 22.8393 121.776 23.0193 121.755 23.1993L122.152 23.2475C122.175 23.0515 122.187 22.8555 122.187 22.6594H121.787ZM121.755 23.1993C121.732 23.3891 121.715 23.5036 121.706 23.5516L122.098 23.63C122.111 23.5641 122.129 23.4337 122.152 23.2475L121.755 23.1993ZM121.901 23.3908L115.859 23.425L115.862 23.825L121.903 23.7908L121.901 23.3908ZM120.333 22.3091C120.333 21.5693 120.173 20.9499 119.835 20.4682L119.508 20.6978C119.785 21.0934 119.933 21.6248 119.933 22.3091H120.333ZM119.837 20.4706C119.489 19.9581 118.934 19.7165 118.219 19.7165V20.1165C118.837 20.1165 119.251 20.3193 119.506 20.6954L119.837 20.4706ZM118.219 19.7165C117.491 19.7165 116.895 19.9638 116.453 20.4684L116.755 20.7318C117.111 20.3249 117.591 20.1165 118.219 20.1165V19.7165ZM116.453 20.4695C116.028 20.9616 115.79 21.5729 115.73 22.2925L116.128 22.3257C116.182 21.6781 116.394 21.1501 116.755 20.7307L116.453 20.4695ZM115.929 22.5091H120.133V22.1091H115.929V22.5091ZM126.978 26.4277L126.783 26.4727L126.952 27.2066L127.169 26.4853L126.978 26.4277ZM129.268 18.8142L129.236 18.6167L129.112 18.6365L129.076 18.7566L129.268 18.8142ZM130.925 18.5493L131.118 18.4962L131.071 18.3236L130.894 18.3518L130.925 18.5493ZM133.096 26.4277L132.903 26.4809L133.291 26.4706L133.096 26.4277ZM134.497 20.0361L134.692 20.079L134.735 19.8831L134.539 19.8407L134.497 20.0361ZM133.275 19.7712H133.075V19.9325L133.233 19.9667L133.275 19.7712ZM133.275 18.8142L133.271 18.6143L133.075 18.6185V18.8142H133.275ZM137.214 18.7288H137.414V18.5244L137.21 18.5288L137.214 18.7288ZM137.214 19.7712L137.249 19.9682L137.414 19.939V19.7712H137.214ZM136.198 19.9507L136.163 19.7537L136.037 19.7759L136.004 19.8994L136.198 19.9507ZM134.061 28V28.2H134.215L134.255 28.0513L134.061 28ZM132.045 28L131.853 28.0584L131.897 28.2H132.045V28ZM130.387 22.574L130.193 22.6225L130.196 22.6324L130.387 22.574ZM129.968 20.8992L130.162 20.8507L129.773 20.8563L129.968 20.8992ZM129.601 22.574L129.792 22.6327L129.794 22.6248L129.796 22.6168L129.601 22.574ZM127.935 28V28.2H128.082L128.126 28.0587L127.935 28ZM125.927 28L125.734 28.053L125.774 28.2H125.927V28ZM123.739 20.0361L123.932 19.9832L123.903 19.8765L123.797 19.8446L123.739 20.0361ZM122.859 19.7712H122.659V19.9199L122.801 19.9628L122.859 19.7712ZM122.859 18.8142L122.855 18.6143L122.659 18.6185V18.8142H122.859ZM126.798 18.7288H126.998V18.5244L126.794 18.5288L126.798 18.7288ZM126.798 19.7712L126.825 19.9694L126.998 19.9458V19.7712H126.798ZM125.482 19.9507L125.455 19.7525L125.238 19.7821L125.287 19.9957L125.482 19.9507ZM127.169 26.4853L129.459 18.8718L129.076 18.7566L126.786 26.3701L127.169 26.4853ZM129.299 19.0117L130.957 18.7468L130.894 18.3518L129.236 18.6167L129.299 19.0117ZM130.732 18.6024L132.903 26.4809L133.289 26.3746L131.118 18.4962L130.732 18.6024ZM133.291 26.4706L134.692 20.079L134.302 19.9933L132.9 26.3849L133.291 26.4706ZM134.539 19.8407L133.318 19.5758L133.233 19.9667L134.455 20.2316L134.539 19.8407ZM133.475 19.7712V18.8142H133.075V19.7712H133.475ZM133.279 19.0142L137.219 18.9287L137.21 18.5288L133.271 18.6143L133.279 19.0142ZM137.014 18.7288V19.7712H137.414V18.7288H137.014ZM137.18 19.5743L136.163 19.7537L136.232 20.1476L137.249 19.9682L137.18 19.5743ZM136.004 19.8994L133.868 27.9487L134.255 28.0513L136.391 20.002L136.004 19.8994ZM134.061 27.8H132.045V28.2H134.061V27.8ZM132.236 27.9416L130.578 22.5155L130.196 22.6324L131.853 28.0584L132.236 27.9416ZM130.581 22.5255L130.162 20.8507L129.774 20.9477L130.193 22.6225L130.581 22.5255ZM129.773 20.8563L129.405 22.5311L129.796 22.6168L130.164 20.942L129.773 20.8563ZM129.41 22.5153L127.743 27.9413L128.126 28.0587L129.792 22.6327L129.41 22.5153ZM127.935 27.8H125.927V28.2H127.935V27.8ZM126.119 27.947L123.932 19.9832L123.546 20.0891L125.734 28.053L126.119 27.947ZM123.797 19.8446L122.917 19.5797L122.801 19.9628L123.681 20.2276L123.797 19.8446ZM123.059 19.7712V18.8142H122.659V19.7712H123.059ZM122.863 19.0142L126.802 18.9287L126.794 18.5288L122.855 18.6143L122.863 19.0142ZM126.598 18.7288V19.7712H126.998V18.7288H126.598ZM126.771 19.5731L125.455 19.7525L125.509 20.1488L126.825 19.9694L126.771 19.5731ZM125.287 19.9957L126.783 26.4727L127.172 26.3827L125.677 19.9057L125.287 19.9957ZM139.521 26.7012H139.721V26.6887L139.72 26.6764L139.521 26.7012ZM139.957 26.7952L139.923 26.9922L139.926 26.9927L139.957 26.7952ZM142.974 25.4792L143.174 25.4805V25.4792H142.974ZM142.487 24.6333L142.383 24.8043L142.386 24.8064L142.487 24.6333ZM140.991 24.0266L140.93 24.217L140.932 24.2176L140.991 24.0266ZM139.479 23.4541L139.39 23.6335L139.394 23.6351L139.479 23.4541ZM138.496 22.6509L138.338 22.7733L138.339 22.7746L138.496 22.6509ZM138.975 19.2585L138.851 19.1016L138.85 19.1022L138.975 19.2585ZM142.563 18.6689L142.528 18.8657L142.531 18.8662L142.563 18.6689ZM143.691 18.9082L143.638 19.1009L143.639 19.1012L143.691 18.9082ZM144.281 19.0791L144.481 19.0834L144.484 18.9393L144.348 18.8908L144.281 19.0791ZM144.23 21.4375V21.6375H144.425L144.43 21.4418L144.23 21.4375ZM143.093 21.4375L142.897 21.4779L142.93 21.6375H143.093V21.4375ZM142.811 20.0703L143.007 20.0299L142.984 19.917L142.875 19.8806L142.811 20.0703ZM142.581 20.002L142.523 20.1935L142.526 20.1943L142.581 20.002ZM140.333 21.9075L140.228 22.0774L140.231 22.0795L140.333 21.9075ZM141.846 22.5398L141.912 22.3509L141.908 22.3499L141.846 22.5398ZM143.333 23.1294L143.247 23.3104L143.25 23.3114L143.333 23.1294ZM144.315 23.907L144.158 24.0303L144.159 24.0316L144.315 23.907ZM138.103 27.7864H137.903V27.91L138.014 27.9653L138.103 27.7864ZM138.103 25.1973V24.9973H137.903V25.1973H138.103ZM139.333 25.1973L139.532 25.1725L139.51 24.9973H139.333V25.1973ZM139.321 26.7012C139.321 26.7562 139.344 26.7968 139.359 26.819C139.375 26.841 139.392 26.8551 139.402 26.8624C139.421 26.877 139.439 26.8853 139.446 26.8887C139.463 26.8965 139.481 26.9019 139.492 26.9053C139.518 26.9128 139.551 26.9206 139.588 26.9287C139.665 26.9452 139.777 26.9664 139.923 26.9921L139.992 26.5982C139.847 26.5727 139.741 26.5526 139.673 26.5377C139.637 26.5301 139.616 26.5248 139.605 26.5216C139.599 26.5196 139.602 26.5203 139.611 26.5241C139.614 26.5254 139.628 26.5319 139.645 26.5447C139.653 26.5511 139.669 26.5644 139.684 26.5856C139.7 26.607 139.721 26.6468 139.721 26.7012H139.321ZM139.926 26.9927C140.23 27.0404 140.585 27.0635 140.991 27.0635V26.6635C140.599 26.6635 140.266 26.6411 139.988 26.5976L139.926 26.9927ZM140.991 27.0635C141.667 27.0635 142.209 26.9462 142.588 26.6814C142.98 26.4078 143.17 25.996 143.174 25.4805L142.774 25.478C142.771 25.8854 142.628 26.1657 142.359 26.3535C142.078 26.5501 141.632 26.6635 140.991 26.6635V27.0635ZM143.174 25.4792C143.174 25.0321 142.973 24.6841 142.587 24.4602L142.386 24.8064C142.649 24.9585 142.774 25.1745 142.774 25.4792H143.174ZM142.59 24.4623C142.25 24.2557 141.733 24.0477 141.051 23.8356L140.932 24.2176C141.605 24.427 142.085 24.6235 142.383 24.8043L142.59 24.4623ZM141.052 23.8362C140.436 23.6382 139.941 23.4504 139.564 23.2731L139.394 23.6351C139.792 23.8224 140.305 24.0162 140.93 24.217L141.052 23.8362ZM139.567 23.2747C139.213 23.1004 138.909 22.8522 138.653 22.5272L138.339 22.7746C138.63 23.1446 138.981 23.4318 139.39 23.6335L139.567 23.2747ZM138.654 22.5284C138.414 22.2183 138.286 21.8089 138.286 21.2837H137.886C137.886 21.875 138.031 22.3771 138.338 22.7733L138.654 22.5284ZM138.286 21.2837C138.286 20.4565 138.562 19.8435 139.099 19.4149L138.85 19.1022C138.202 19.6192 137.886 20.3563 137.886 21.2837H138.286ZM139.099 19.4154C139.654 18.9767 140.379 18.7493 141.29 18.7493V18.3493C140.311 18.3493 139.492 18.5947 138.851 19.1016L139.099 19.4154ZM141.29 18.7493C141.687 18.7493 142.1 18.7879 142.528 18.8657L142.599 18.4722C142.15 18.3905 141.713 18.3493 141.29 18.3493V18.7493ZM142.531 18.8662C142.971 18.9396 143.339 19.0179 143.638 19.1009L143.745 18.7155C143.428 18.6276 143.045 18.5465 142.596 18.4717L142.531 18.8662ZM143.639 19.1012C143.955 19.1873 144.143 19.2421 144.214 19.2674L144.348 18.8908C144.26 18.8591 144.055 18.8 143.744 18.7153L143.639 19.1012ZM144.081 19.0748L144.03 21.4332L144.43 21.4418L144.481 19.0834L144.081 19.0748ZM144.23 21.2375H143.093V21.6375H144.23V21.2375ZM143.289 21.3971L143.007 20.0299L142.615 20.1107L142.897 21.4779L143.289 21.3971ZM142.875 19.8806C142.835 19.8675 142.754 19.8435 142.636 19.8096L142.526 20.1943C142.646 20.2288 142.719 20.2503 142.748 20.26L142.875 19.8806ZM142.638 19.8104C142.509 19.7717 142.335 19.7387 142.12 19.7098L142.067 20.1062C142.274 20.1341 142.424 20.1638 142.523 20.1935L142.638 19.8104ZM142.12 19.7098C141.899 19.6799 141.656 19.6652 141.393 19.6652V20.0652C141.642 20.0652 141.866 20.0791 142.067 20.1062L142.12 19.7098ZM141.393 19.6652C140.855 19.6652 140.415 19.7654 140.106 19.9981C139.786 20.2388 139.638 20.5971 139.638 21.0359H140.038C140.038 20.6942 140.148 20.4672 140.347 20.3177C140.556 20.1602 140.894 20.0652 141.393 20.0652V19.6652ZM139.638 21.0359C139.638 21.4839 139.841 21.8374 140.228 22.0774L140.439 21.7375C140.165 21.5674 140.038 21.3398 140.038 21.0359H139.638ZM140.231 22.0795C140.586 22.2899 141.106 22.506 141.783 22.7297L141.908 22.3499C141.241 22.1292 140.753 21.9238 140.435 21.7355L140.231 22.0795ZM141.78 22.7286C142.38 22.9381 142.869 23.1321 143.247 23.3104L143.418 22.9484C143.022 22.7621 142.519 22.563 141.912 22.351L141.78 22.7286ZM143.25 23.3114C143.607 23.4744 143.909 23.7132 144.158 24.0303L144.473 23.7837C144.186 23.4171 143.833 23.1376 143.415 22.9474L143.25 23.3114ZM144.159 24.0316C144.393 24.3258 144.517 24.7037 144.517 25.1802H144.917C144.917 24.6313 144.773 24.1604 144.472 23.7824L144.159 24.0316ZM144.517 25.1802C144.517 26.0901 144.179 26.7666 143.508 27.2382L143.738 27.5655C144.526 27.0117 144.917 26.2071 144.917 25.1802H144.517ZM143.508 27.2382C142.82 27.7221 141.946 27.9709 140.872 27.9709V28.3709C142.008 28.3709 142.968 28.107 143.738 27.5655L143.508 27.2382ZM140.872 27.9709C140.401 27.9709 139.966 27.9429 139.566 27.8874L139.511 28.2835C139.932 28.342 140.385 28.3709 140.872 28.3709V27.9709ZM139.566 27.8874C139.159 27.8308 138.838 27.7748 138.601 27.7197L138.511 28.1094C138.764 28.1683 139.098 28.2262 139.511 28.2835L139.566 27.8874ZM138.601 27.7197C138.48 27.6916 138.385 27.6675 138.313 27.6473C138.238 27.6259 138.202 27.6124 138.192 27.6075L138.014 27.9653C138.061 27.9889 138.129 28.011 138.205 28.0322C138.284 28.0548 138.387 28.0805 138.511 28.1094L138.601 27.7197ZM138.303 27.7864V25.1973H137.903V27.7864H138.303ZM138.103 25.3973H139.333V24.9973H138.103V25.3973ZM139.135 25.2221L139.323 26.726L139.72 26.6764L139.532 25.1725L139.135 25.2221Z" fill="#63181F"/>
<defs>
<filter id="filter0_d_16_102" x="5.96226" y="18.6604" width="33.7117" height="27.6835" filterUnits="userSpaceOnUse" color-interpolation-filters="sRGB">
<feFlood flood-opacity="0" result="BackgroundImageFix"/>
<feColorMatrix in="SourceAlpha" type="matrix" values="0 0 0 0 0 0 0 0 0 0 0 0 0 0 0 0 0 0 127 0" result="hardAlpha"/>
<feOffset dy="2.03774"/>
<feGaussianBlur stdDeviation="1.01887"/>
<feComposite in2="hardAlpha" operator="out"/>
<feColorMatrix type="matrix" values="0 0 0 0 0 0 0 0 0 0 0 0 0 0 0 0 0 0 0.25 0"/>
<feBlend mode="normal" in2="BackgroundImageFix" result="effect1_dropShadow_16_102"/>
<feBlend mode="normal" in="SourceGraphic" in2="effect1_dropShadow_16_102" result="shape"/>
</filter>
</defs>
</svg>